<?xml version="1.0" encoding="utf-8"?>
<!-- Generator: Adobe Illustrator 23.0.2, SVG Export Plug-In . SVG Version: 6.00 Build 0)  -->
<svg version="1.1" id="Layer_1" xmlns="http://www.w3.org/2000/svg" xmlns:xlink="http://www.w3.org/1999/xlink" x="0px" y="0px"
	 viewBox="0 0 1920 1080" style="enable-background:new 0 0 1920 1080;" xml:space="preserve">
<style type="text/css">
	.st0{fill:#74C5CE;}
</style>
<g>
	<path class="st0" d="M939.9,235.8c59.9,0.3,119.1,5.8,177.8,16.8c10.6,2,21.2,0.9,31.8,0.1c6.7-0.5,13.3-0.9,20-1.6
		c4.2-0.4,8.5-0.9,12.7-1.7c12.7-2.2,25.4-4.5,38-6.9c40.9-8,82-10,123.4-2.7c35.3,6.3,67.4,18.8,94.1,41.2
		c33.6,28.2,48.8,63.5,47.4,104.8c-0.4,12.3-2.9,24.4-6,36.4c-2.9,11.4-5.1,22.9-7.3,34.3c-1.5,7.7-2.9,15.5-3.9,23.3
		c-0.7,5.8-0.7,11.7-1,17.6c-0.4,9.6-0.5,19.2-1,28.7c-1.6,33.8-13.5,64.5-33.3,92.9c-21.1,30.3-48.6,55.1-79.9,76.5
		c-42.7,29.1-90,50.5-140.1,66.9c-56.3,18.4-114.3,29.9-173.7,36.2c-54.3,5.7-108.7,6.7-163.2,3.3c-6.9-0.4-13.8-0.9-20.7-1.6
		c-17.9-1.8-35.7-0.7-53.6,0.2c-7.8,0.4-15.6,0.7-23.4,0.8c-13.1,0.2-25.5,3-38,6.3c-39.1,10.4-79,13.8-119.3,7.5
		c-66.4-10.4-117.1-41-148.1-96.4c-11.4-20.4-16.9-42.3-19.9-64.9c-1.7-12.5-5.2-24.7-11.1-36.4c-9.6-19.1-20.2-37.9-25.2-58.7
		c-10.3-43.4-3.2-84.4,19.4-123.3c18.6-31.9,44.6-58.2,75.1-81c41.1-30.7,87.4-53.4,136.8-71c62.4-22.2,127.1-35.6,193.5-42.4
		c14.7-1.5,29.5-2.7,44.3-3.5C903.7,236.8,921.8,236.4,939.9,235.8z"/>
</g>
</svg>
